<svg version="1.2" xmlns="http://www.w3.org/2000/svg" viewBox="0 0 500 49" width="300" height="29">
	<title>aguiabranca</title>
	<defs>
		<clipPath clipPathUnits="userSpaceOnUse" id="cp1">
			<path d="m0 0h500v48.06h-500z"/>
		</clipPath>
	</defs>
	<style>
		.s0 { fill: #2673ba } 
	</style>
	<g id="aguiabranca">
		<path id="Caminho_23216" class="s0" d="m30.1 0.8l-30.1 46.4h14.4l4.6-7.8h13.3v7.8h11.1l-0.1-46.4zm2.2 15.9v14.1h-8.3z"/>
		<path id="Caminho_23217" class="s0" d="m163.1 0.8l-18.7 28.9v-28.7h-11.4v46.2h0.1-0.1 14.4l4.6-7.8h13.3v7.8h11.1v-46.4zm2.1 15.9v14.1h-8.3z"/>
		<g id="Grupo_15642">
			<g id="Clip-Path: Grupo_15641" clip-path="url(#cp1)">
				<g id="Grupo_15641">
					<path id="Caminho_23218" class="s0" d="m264.1 0.8l-23.3 35.9-3.5-5q0.5-0.2 1-0.5 0.5-0.3 1-0.6 0.5-0.3 0.9-0.6 0.5-0.3 0.9-0.6c4-3.6 5-6.6 5-12 0-9.6-4.7-16.6-20-16.6h-11.6v46.4h11.3v-13.4l8 13.3h0.2l-0.1 0.1h14.4l4.6-7.8h13.3v7.8h11.1v-46.4zm-36 22h-2.3v-10.9h2.3c5.1 0 6.9 1.1 6.9 5.5 0 4.3-1.7 5.4-6.9 5.4zm38.1 8h-8.3l8.3-14.1z"/>
					<path id="Caminho_23219" class="s0" d="m66.2 21.5v8.4h13.8c-1.5 4.2-6 7.1-10.8 7.1-7.8 0-12.7-5.9-12.7-12.8-0.1-1.7 0.2-3.4 0.9-5 0.6-1.6 1.5-3 2.7-4.2 1.2-1.2 2.7-2.2 4.3-2.8 1.5-0.6 3.2-0.9 4.9-0.8q1.5-0.1 3 0.3 1.5 0.4 2.8 1.2 1.3 0.7 2.3 1.8 1.1 1.1 1.8 2.4h13c-0.7-2.5-1.8-4.8-3.2-6.9-1.5-2.1-3.3-4-5.3-5.5-2.1-1.5-4.4-2.7-6.8-3.5-2.5-0.8-5-1.2-7.6-1.2-3.1 0-6.3 0.6-9.2 1.8-2.9 1.2-5.6 3-7.8 5.2-2.3 2.2-4 4.9-5.2 7.8-1.2 2.9-1.8 6.1-1.8 9.2 0 12.9 9.4 24.1 24 24.1 3.4 0 6.7-0.7 9.8-2.1 3.1-1.3 5.8-3.3 8.1-5.9 2.2-2.5 3.9-5.4 4.9-8.7 1-3.2 1.3-6.6 0.9-9.9z"/>
					<path id="Caminho_23220" class="s0" d="m118.1 30c0 3.9-1.3 7-5.7 7-4.4 0-5.7-3.1-5.7-7v-29h-11.4v28.6c0 11.1 6.5 18.4 17.1 18.4 10.6 0 17.1-7.2 17.1-18.4v-28.6h-11.4z"/>
					<path id="Caminho_23221" class="s0" d="m207.1 22.3q1.1-0.7 1.9-1.6 0.8-1 1.4-2.1 0.5-1.1 0.8-2.4 0.2-1.2 0.2-2.5c0-8.5-5.5-12.6-16.5-12.6h-12.9v46.3h13.1c12.6 0 18.4-5.7 18.4-14.8 0-4.7-2.3-8.6-6.4-10.3zm-14.4-11.7h2.4c3.6 0 5.7 1.1 5.7 4.5 0 3.1-2.1 4.2-5.7 4.2h-2.4zm2.1 26.4h-2.1v-9.7h2.4c4.5 0 7 1.3 7 5 0 3.6-2.5 4.7-7.3 4.7z"/>
					<path id="Caminho_23222" class="s0" d="m305.1 26.5l-13.5-25.6h-11.4v46.3h11.4v-25.9l13.6 25.9h11.3v-46.3h-11.4z"/>
					<path id="Caminho_23223" class="s0" d="m386.8 1.6h-13.2l-21.2 32.7c-1.4 1.5-3.5 2.4-8.9 2.4-3.4 0-6.6-1.3-9-3.7-2.4-2.4-3.7-5.6-3.7-9 0-3.3 1.3-6.6 3.7-8.9 2.4-2.4 5.6-3.8 9-3.8q2.1 0 4.2 0.7 2 0.7 3.7 2 1.7 1.3 2.8 3.1 1.2 1.8 1.7 3.9l7.2-10.9c-3-4.2-7.2-7.3-12-8.9-4.9-1.6-10.1-1.6-14.9-0.1-4.9 1.6-9.1 4.7-12.1 8.8-3 4.1-4.6 9.1-4.6 14.1 0 3.2 0.6 6.3 1.8 9.2 1.2 2.9 3 5.6 5.2 7.8 2.3 2.2 4.9 4 7.8 5.2 2.9 1.2 6 1.8 9.2 1.8q0.7 0 1.3 0c5.4-0.2 11.5-1.7 16.5-7.8h14.4l0.1 7.8h42.8c7.9 0 15.9-5.1 20.3-14.4h-52v-1.6h61.9c7.9 0 15.9-5.1 20.3-14.4h-82.2v-1.6h92.8c8 0 16-5.1 20.3-14.4zm-11 30.1h-8.3l8.3-14.2z"/>
				</g>
			</g>
		</g>
	</g>
</svg>