<svg id="Camada_1" data-name="Camada 1" xmlns="http://www.w3.org/2000/svg" viewBox="0 0 209 65"><defs><style>.cls-1{fill:#191919;}.cls-2{fill:red;}.cls-3{fill:#0094de;}</style></defs><title>catarinense</title><path class="cls-1" d="M13.1,35.2H16V30.5a.7.7,0,0,0-.7-.7H3.6s-.8.2-.8.7V44a.7.7,0,0,0,.7.7H15.3A.7.7,0,0,0,16,44h0c0-.7,0-4.3,0-4.3H13.1v2.2S13,42.9,12,42.9H6.5a1,1,0,0,1-.7-1.1V32.7a1,1,0,0,1,1.1-1.1h4.8a1,1,0,0,1,1.1,1.1v2.5h.3"/><path class="cls-1" d="M22.2,44.7l5.2-14.9h5.7l5.1,14.9H34.6l-4-12.4a.5.5,0,0,0-.7,0l-4,12.4Z"/><polygon class="cls-1" points="40.8 29.8 40.8 32.3 45.9 32.3 45.9 44.7 49.6 44.7 49.6 32.4 54.7 32.4 54.7 29.8 40.8 29.8"/><path class="cls-1" d="M57.3,44.7l5.2-14.9h5.7l5.1,14.9H69.7l-4-12.4a.5.5,0,0,0-.7,0l-4,12.4Z"/><path class="cls-1" d="M79.5,29.8H91.1a.3.3,0,0,1,.4.4v8.7a.4.4,0,0,1-.4.4H88.9l2.9,5.5H88.2l-3.3-6.6h2.6a1.1,1.1,0,0,0,1.1-1.1V32.4a1.1,1.1,0,0,0-1.1-1.1H82.7V44.7H79.5Z"/><rect class="cls-1" x="98.4" y="29.4" width="3.2" height="15.37"/><polygon class="cls-1" points="108.6 29.4 108.6 44.7 111.2 44.7 111.2 32.9 119.2 44.7 123.6 44.7 123.6 29.4 121 29.4 121 41.1 112.9 29.4 108.6 29.4"/><polyline class="cls-1" points="133.8 31.6 143.4 31.6 143.4 29.4 130.5 29.4"/><polyline class="cls-1" points="133.8 31.6 133.8 36.4 143.3 36.4 143.3 38.2 133.8 38.2 133.8 42.9 143.3 42.9 143.3 44.7 130.4 44.7 130.4 29.4"/><polygon class="cls-1" points="150.2 29.4 150.2 44.7 152.8 44.7 152.8 32.9 160.8 44.7 165.2 44.7 165.2 29.4 162.6 29.4 162.6 41.1 154.5 29.4 150.2 29.4"/><path class="cls-1" d="M172.1,29.4h14.2v3.3h-3.6s.2-1.4-1-1.5h-4.7a.7.7,0,0,0-.8.7v4a.7.7,0,0,0,.7.7h9.4v8H172.1V41.8h3.6s-.3,1.4,1.1,1.4H182a.7.7,0,0,0,.7-.7V39.3a1,1,0,0,0-1.1-1.1h-9.5Z"/><polyline class="cls-1" points="196.6 31.6 206.2 31.6 206.2 29.4 193.3 29.4"/><polyline class="cls-1" points="196.6 31.6 196.6 36.4 206.1 36.4 206.1 38.2 196.6 38.2 196.6 42.9 206.1 42.9 206.1 44.7 193.2 44.7 193.2 29.4"/><rect class="cls-2" x="37" y="19.3" width="67.2" height="2.67"/><rect class="cls-3" x="104.2" y="19.3" width="67.2" height="2.67"/></svg>