<svg version="1.2" xmlns="http://www.w3.org/2000/svg" viewBox="0 0 400 68" width="400" height="68">
	<title>03Cometa23-CompostaHorizontal1-Retangular-CMYK (1)-pdf</title>
	<defs>
		<clipPath clipPathUnits="userSpaceOnUse" id="cp1">
			<path d="m0 0h400v68h-400z"/>
		</clipPath>
	</defs>
	<style>
		.s0 { fill: #ffffff } 
		.s1 { fill: #0d305e } 
		.s2 { fill: #ffc734 } 
		.s3 { fill: #0073c0 } 
		.s4 { fill: #fb3199 } 
		.s5 { fill: #d9dc41 } 
	</style>
	<g id="Page 1" clip-path="url(#cp1)">
		<path id="Path 1" class="s0" d="m0.9 1.1h398.3v66h-398.3z"/>
		<path id="Path 2" class="s1" d="m115 34q0-3 0.9-5.7l8.5 0.2q-0.6 0.9-1 2-0.5 1.6-0.5 3.3v0.1zm1.1-5.8q0.1-0.3 0.2-0.5 1.2-3 3.4-5.1 2.1-2.2 5.2-3.4 3-1.3 6.7-1.3 1.8 0 3.3 0.3 1.6 0.3 2.9 0.7 1.2 0.4 2.2 1 1 0.5 1.7 1 0.9 0.6 1 1.5 0.1 0.9-0.5 1.8l-1.1 1.8q-0.6 1-1.4 1.2-0.9 0.1-1.9-0.5-1.1-0.6-2.6-1.2-1.5-0.6-3.3-0.6-2.3 0-4 0.8-1.7 0.8-2.8 2-0.2 0.3-0.4 0.6zm7 6.1q0 1.5 0.5 3 0.4 1.3 1.1 2.4l-8.7 0.1q-0.9-2.6-0.9-5.6zm1.9 5.7q0.1 0.2 0.2 0.4 1.1 1.3 2.8 2.1 1.7 0.8 4 0.8 2 0 3.6-0.7 1.7-0.7 2.8-1.5 2.1-1.5 3.4 0.4l1.2 1.7q0.7 1 0.6 1.8-0.1 0.9-1 1.6-0.7 0.6-1.8 1.2-1 0.7-2.4 1.2-1.4 0.6-3.1 1-1.7 0.3-3.7 0.3-3.8 0-6.8-1.2-3.1-1.2-5.3-3.4-2.1-2.2-3.3-5.2-0.1-0.2-0.1-0.4zm30-6.3q0-2.3 0.6-4.5l8.4 0.2q-0.2 0.4-0.4 0.9-0.6 1.6-0.6 3.4zm0.8-5.2q0.2-0.5 0.4-0.9 1.1-3 3.3-5.1 2.2-2.2 5.3-3.4 3-1.3 6.7-1.3 3.6 0 6.7 1.3 3 1.2 5.2 3.4 2.2 2.1 3.4 5.1 0.2 0.6 0.4 1.2l-8.7-0.1q-0.4-0.7-0.9-1.3-1.2-1.2-2.7-1.9-1.6-0.6-3.4-0.6-1.9 0-3.5 0.6-1.5 0.7-2.6 1.9-0.5 0.6-0.9 1.2zm31.7 1.3q0.4 1.7 0.4 3.6l-8 0.1q0-1.7-0.6-3.2-0.1-0.4-0.3-0.7zm0.5 4.9q-0.1 1.9-0.6 3.6l-8.4 0.2q0.2-0.4 0.4-0.9 0.5-1.4 0.6-3zm-0.9 4.7q-0.1 0.5-0.3 0.9-1.2 3-3.4 5.2-2.2 2.3-5.2 3.5-3 1.3-6.7 1.3-3.7 0-6.7-1.3-3.1-1.2-5.2-3.5-2.2-2.2-3.4-5.2-0.1-0.3-0.3-0.6l8.7-0.1q0.4 0.5 0.8 1 1.1 1.2 2.7 2 1.5 0.7 3.4 0.7 1.8 0 3.4-0.7 1.6-0.8 2.7-2 0.5-0.5 0.8-1.1zm-31.4-0.4q-0.6-2.1-0.7-4.5h8q0.1 1.7 0.6 3.1 0.3 0.7 0.6 1.2zm47.6-18.3q0.2-2.3 2.5-2.3h4q2.1 0 2.7 2l3 8.7-12.9-0.2zm12.8 9.8l0.4 1.2q0.2 0.7 0.5 1.6l-6.3 0.1-0.4-1.1q-0.3-0.9-0.6-1.9h-0.1q0 0.9 0.1 1.7 0 0.6 0 1.3h-7.4l0.2-3.2zm1.5 4.4v0.1q0.3 0.9 0.5 1.9h0.1q0.3-1 0.6-1.9v-0.1l6.2 0.1q-0.1 0.3-0.2 0.7l-0.7 1.9-11.7 0.3-0.8-2.2q-0.2-0.4-0.3-0.8zm1.7-1.6q0.3-0.9 0.5-1.7l0.4-1.1 6.3 0.2q-0.3 0.8-0.5 1.5l-0.4 1zm1.5-4.2l3-8.7q0.7-2 2.7-2h4q2.3 0 2.5 2.4l0.7 8.4zm13.1 1.8l0.2 2.3-7.5 0.1q0-0.6 0.1-1.1 0-0.7 0-1.5zm0.4 4.2l0.2 2.4-7.6 0.1-0.1-1.9q0-0.3-0.1-0.6zm0.4 4l0.6 8.2q0.1 1.2-0.5 1.9-0.6 0.6-1.8 0.6h-2.8q-2.3 0-2.5-2.3l-0.6-8.4zm-10.9 0.1l-1.4 3.7q-0.7 1.9-2.7 1.9h-2.5q-2.1 0-2.8-1.9l-1.3-3.6zm-13.8-4.2q0 0.4 0 0.8l-0.2 2.2-7.6 0.2 0.3-3.3zm-0.3 4.4l-0.5 8.2q-0.3 2.3-2.6 2.3h-2.9q-1.2 0-1.8-0.6-0.6-0.7-0.5-1.9l0.7-7.9zm40.5-18.5q0-2.4 2.4-2.4h14.9q2.5 0 2.5 2.4v1.8q0 2.4-2.5 2.4h-9.6v4.4h-7.7zm16.9 10.7q0.4 0.5 0.4 1.4l-17.3 0.1v-1.9zm0.4 3.8q-0.1 0.9-0.6 1.4l-16.7 0.3v-1.9zm-9.6 3.6v4.4h10.2q2.4 0 2.4 2.4v1.7q0 2.5-2.4 2.5h-15.5q-2.4 0-2.4-2.5v-8.4zm33.6-13.9h-7.1q-2.4 0-2.4-2.4v-1.7q0-2.4 2.4-2.4h22q2.4 0 2.4 2.4v1.7q0 2.4-2.4 2.4h-7.1v4.8h-7.8zm7.8 7.2v0.5l-7.8 0.1v-0.8zm0 3.3v0.5l-7.7 0.2v-0.8zm0 3v8.9q0 2.4-2.4 2.4h-2.9q-2.4 0-2.4-2.4v-8.8zm26.7-18.1q0.6-2 2.7-2h4q2.1 0 2.7 2l3.4 9.8-7-0.1q-0.1-0.4-0.2-0.8-0.2-0.9-0.4-1.7-0.2-1-0.5-2-0.3 1-0.5 2-0.2 0.8-0.4 1.7-0.1 0.4-0.2 0.8l-6.9-0.1zm15.5 17.7l3.1 8.9q0.4 1.3-0.2 2.1-0.5 0.7-1.8 0.7h-2.9q-2.1 0-2.8-2l-1.3-4.6-1.5-5zm-14.2 0.1l-1.5 5-1.3 4.6q-0.6 2-2.7 2h-2.9q-1.3 0-1.9-0.8-0.6-0.7-0.1-2l3-8.7z"/>
		<path id="Path 3" class="s2" d="m363.1 38c-2.1 0-3.9-1.8-3.9-3.9 0-2.2 1.8-4 3.9-4 2.2 0 4 1.8 4 4 0 2.1-1.8 3.9-4 3.9z"/>
		<path id="Path 4" class="s3" d="m64.3 38c-2.2 0-3.9-1.8-3.9-3.9 0-2.2 1.7-4 3.9-4 2.2 0 3.9 1.8 3.9 4 0 2.1-1.7 3.9-3.9 3.9z"/>
		<path id="Path 5" class="s4" d="m91.6 38c-2.2 0-4-1.8-4-3.9 0-2.2 1.8-4 4-4 2.2 0 3.9 1.8 3.9 4 0 2.1-1.7 3.9-3.9 3.9z"/>
		<path id="Path 6" class="s5" d="m37 38c-2.1 0-3.9-1.8-3.9-3.9 0-2.2 1.8-4 3.9-4 2.2 0 4 1.8 4 4 0 2.1-1.8 3.9-4 3.9z"/>
	</g>
</svg>